<mxfile host="app.diagrams.net" modified="2021-09-07T13:36:01.986Z" agent="5.0 (Windows NT 10.0; Win64; x64) AppleWebKit/537.36 (KHTML, like Gecko) Chrome/93.0.4577.63 Safari/537.36" etag="dEvqMVhpVn3QWKFqtdre" version="15.1.0" type="github">
  <diagram id="ZDa33ybsxVAxGXznUbYQ" name="Page-1">
    <mxGraphModel dx="1038" dy="547" grid="1" gridSize="10" guides="1" tooltips="1" connect="1" arrows="1" fold="1" page="1" pageScale="1" pageWidth="850" pageHeight="1100" math="0" shadow="0">
      <root>
        <mxCell id="0" />
        <mxCell id="1" parent="0" />
        <mxCell id="WI8C8Ni92t8Lya37aWpu-7" value="" style="edgeStyle=orthogonalEdgeStyle;rounded=0;orthogonalLoop=1;jettySize=auto;html=1;" edge="1" parent="1" source="WI8C8Ni92t8Lya37aWpu-1" target="WI8C8Ni92t8Lya37aWpu-6">
          <mxGeometry relative="1" as="geometry" />
        </mxCell>
        <mxCell id="WI8C8Ni92t8Lya37aWpu-1" value="start" style="ellipse;whiteSpace=wrap;html=1;" vertex="1" parent="1">
          <mxGeometry x="140" y="80" width="120" height="80" as="geometry" />
        </mxCell>
        <mxCell id="WI8C8Ni92t8Lya37aWpu-11" value="" style="edgeStyle=orthogonalEdgeStyle;rounded=0;orthogonalLoop=1;jettySize=auto;html=1;" edge="1" parent="1" source="WI8C8Ni92t8Lya37aWpu-6" target="WI8C8Ni92t8Lya37aWpu-10">
          <mxGeometry relative="1" as="geometry" />
        </mxCell>
        <mxCell id="WI8C8Ni92t8Lya37aWpu-6" value="Enter starting balance in dollars" style="shape=parallelogram;perimeter=parallelogramPerimeter;whiteSpace=wrap;html=1;fixedSize=1;" vertex="1" parent="1">
          <mxGeometry x="120" y="250" width="160" height="90" as="geometry" />
        </mxCell>
        <mxCell id="WI8C8Ni92t8Lya37aWpu-13" value="" style="edgeStyle=orthogonalEdgeStyle;rounded=0;orthogonalLoop=1;jettySize=auto;html=1;" edge="1" parent="1" source="WI8C8Ni92t8Lya37aWpu-10" target="WI8C8Ni92t8Lya37aWpu-12">
          <mxGeometry relative="1" as="geometry" />
        </mxCell>
        <mxCell id="WI8C8Ni92t8Lya37aWpu-10" value="1000" style="shape=parallelogram;perimeter=parallelogramPerimeter;whiteSpace=wrap;html=1;fixedSize=1;" vertex="1" parent="1">
          <mxGeometry x="120" y="420" width="160" height="90" as="geometry" />
        </mxCell>
        <mxCell id="WI8C8Ni92t8Lya37aWpu-15" value="" style="edgeStyle=orthogonalEdgeStyle;rounded=0;orthogonalLoop=1;jettySize=auto;html=1;" edge="1" parent="1" source="WI8C8Ni92t8Lya37aWpu-12" target="WI8C8Ni92t8Lya37aWpu-14">
          <mxGeometry relative="1" as="geometry" />
        </mxCell>
        <mxCell id="WI8C8Ni92t8Lya37aWpu-12" value="Enter yearly contribution in dollars" style="shape=parallelogram;perimeter=parallelogramPerimeter;whiteSpace=wrap;html=1;fixedSize=1;" vertex="1" parent="1">
          <mxGeometry x="120" y="590" width="160" height="90" as="geometry" />
        </mxCell>
        <mxCell id="WI8C8Ni92t8Lya37aWpu-17" value="" style="edgeStyle=orthogonalEdgeStyle;rounded=0;orthogonalLoop=1;jettySize=auto;html=1;" edge="1" parent="1" source="WI8C8Ni92t8Lya37aWpu-14" target="WI8C8Ni92t8Lya37aWpu-16">
          <mxGeometry relative="1" as="geometry" />
        </mxCell>
        <mxCell id="WI8C8Ni92t8Lya37aWpu-14" value="100" style="shape=parallelogram;perimeter=parallelogramPerimeter;whiteSpace=wrap;html=1;fixedSize=1;" vertex="1" parent="1">
          <mxGeometry x="120" y="760" width="160" height="90" as="geometry" />
        </mxCell>
        <mxCell id="WI8C8Ni92t8Lya37aWpu-19" value="" style="edgeStyle=orthogonalEdgeStyle;rounded=0;orthogonalLoop=1;jettySize=auto;html=1;" edge="1" parent="1" source="WI8C8Ni92t8Lya37aWpu-16" target="WI8C8Ni92t8Lya37aWpu-18">
          <mxGeometry relative="1" as="geometry" />
        </mxCell>
        <mxCell id="WI8C8Ni92t8Lya37aWpu-16" value="Enter Average Return on Investment as %" style="shape=parallelogram;perimeter=parallelogramPerimeter;whiteSpace=wrap;html=1;fixedSize=1;" vertex="1" parent="1">
          <mxGeometry x="120" y="930" width="160" height="90" as="geometry" />
        </mxCell>
        <mxCell id="WI8C8Ni92t8Lya37aWpu-21" value="" style="edgeStyle=orthogonalEdgeStyle;rounded=0;orthogonalLoop=1;jettySize=auto;html=1;" edge="1" parent="1" source="WI8C8Ni92t8Lya37aWpu-18" target="WI8C8Ni92t8Lya37aWpu-20">
          <mxGeometry relative="1" as="geometry" />
        </mxCell>
        <mxCell id="WI8C8Ni92t8Lya37aWpu-18" value="5" style="shape=parallelogram;perimeter=parallelogramPerimeter;whiteSpace=wrap;html=1;fixedSize=1;" vertex="1" parent="1">
          <mxGeometry x="120" y="1100" width="160" height="90" as="geometry" />
        </mxCell>
        <mxCell id="WI8C8Ni92t8Lya37aWpu-23" value="" style="edgeStyle=orthogonalEdgeStyle;rounded=0;orthogonalLoop=1;jettySize=auto;html=1;" edge="1" parent="1" source="WI8C8Ni92t8Lya37aWpu-20" target="WI8C8Ni92t8Lya37aWpu-22">
          <mxGeometry relative="1" as="geometry" />
        </mxCell>
        <mxCell id="WI8C8Ni92t8Lya37aWpu-20" value="Enter Number of years for the report." style="shape=parallelogram;perimeter=parallelogramPerimeter;whiteSpace=wrap;html=1;fixedSize=1;" vertex="1" parent="1">
          <mxGeometry x="120" y="1270" width="160" height="90" as="geometry" />
        </mxCell>
        <mxCell id="WI8C8Ni92t8Lya37aWpu-25" value="" style="edgeStyle=orthogonalEdgeStyle;rounded=0;orthogonalLoop=1;jettySize=auto;html=1;" edge="1" parent="1" source="WI8C8Ni92t8Lya37aWpu-22" target="WI8C8Ni92t8Lya37aWpu-24">
          <mxGeometry relative="1" as="geometry" />
        </mxCell>
        <mxCell id="WI8C8Ni92t8Lya37aWpu-22" value="3" style="shape=parallelogram;perimeter=parallelogramPerimeter;whiteSpace=wrap;html=1;fixedSize=1;" vertex="1" parent="1">
          <mxGeometry x="120" y="1440" width="160" height="90" as="geometry" />
        </mxCell>
        <mxCell id="WI8C8Ni92t8Lya37aWpu-27" value="" style="edgeStyle=orthogonalEdgeStyle;rounded=0;orthogonalLoop=1;jettySize=auto;html=1;" edge="1" parent="1" source="WI8C8Ni92t8Lya37aWpu-24" target="WI8C8Ni92t8Lya37aWpu-26">
          <mxGeometry relative="1" as="geometry" />
        </mxCell>
        <mxCell id="WI8C8Ni92t8Lya37aWpu-24" value="&lt;div&gt;Year 0: 1000.00&lt;/div&gt;&lt;div&gt;&lt;span&gt;					&lt;/span&gt;Year 1: 1155.00&lt;/div&gt;&lt;div&gt;&lt;span&gt;					&lt;/span&gt;Year 2: 1317.75&lt;/div&gt;&lt;div&gt;&lt;span&gt;					&lt;/span&gt;Year 3: 1488.64&lt;/div&gt;" style="shape=parallelogram;perimeter=parallelogramPerimeter;whiteSpace=wrap;html=1;fixedSize=1;" vertex="1" parent="1">
          <mxGeometry x="120" y="1610" width="160" height="90" as="geometry" />
        </mxCell>
        <mxCell id="WI8C8Ni92t8Lya37aWpu-26" value="end" style="ellipse;whiteSpace=wrap;html=1;" vertex="1" parent="1">
          <mxGeometry x="140" y="1795" width="120" height="60" as="geometry" />
        </mxCell>
      </root>
    </mxGraphModel>
  </diagram>
</mxfile>
